<?xml version="1.0" encoding="iso-8859-1"?>
<!-- Generator: Adobe Illustrator 19.0.0, SVG Export Plug-In . SVG Version: 6.00 Build 0)  -->
<svg version="1.1" id="Capa_1" xmlns="http://www.w3.org/2000/svg" xmlns:xlink="http://www.w3.org/1999/xlink" x="0px" y="0px"
	 viewBox="0 0 512 512" style="enable-background:new 0 0 512 512;" xml:space="preserve" fill="white">
<g>
	<g>
		<path d="M433.908,252.15H78.642c-9.113,0-16.498,7.386-16.498,16.498v84.142h32.997v-67.643h322.269v67.643h32.997v-84.142
			C450.406,259.536,443.02,252.15,433.908,252.15z"/>
	</g>
</g>
<g>
	<g>
		<path d="M329.968,6.324H183.132c-9.113,0-16.498,7.386-16.498,16.498v163.884c0,9.113,7.386,16.498,16.498,16.498h146.836
			c9.113,0,16.498-7.391,16.498-16.498V22.823C346.466,13.71,339.08,6.324,329.968,6.324z M313.469,170.208H199.63V39.321h113.839
			V170.208z"/>
	</g>
</g>
<g>
	<g>
		<path d="M495.502,336.292H377.263c-9.113,0-16.498,7.386-16.498,16.498v136.387c0,9.113,7.386,16.498,16.498,16.498h118.238
			c9.113,0,16.498-7.386,16.498-16.498V352.791C512,343.678,504.614,336.292,495.502,336.292z M479.003,472.679h-85.242v-103.39
			h85.242V472.679z"/>
	</g>
</g>
<g>
	<g>
		<path d="M134.737,336.292H16.498C7.386,336.292,0,343.678,0,352.791v136.387c0,9.113,7.386,16.498,16.498,16.498h118.238
			c9.113,0,16.498-7.386,16.498-16.498V352.791C151.235,343.678,143.849,336.292,134.737,336.292z M118.238,472.679H32.997v-103.39
			h85.242V472.679z"/>
	</g>
</g>
<g>
	<g>
		<path d="M315.119,336.292H196.881c-9.113,0-16.498,7.386-16.498,16.498v136.387c0,9.113,7.386,16.498,16.498,16.498h118.238
			c9.113,0,16.498-7.386,16.498-16.498V352.791C331.618,343.678,324.232,336.292,315.119,336.292z M298.621,472.679h-85.242v-103.39
			h85.242V472.679z"/>
	</g>
</g>
<g>
	<g>
		<rect x="239.777" y="186.707" width="32.997" height="166.084"/>
	</g>
</g>
<g>
</g>
<g>
</g>
<g>
</g>
<g>
</g>
<g>
</g>
<g>
</g>
<g>
</g>
<g>
</g>
<g>
</g>
<g>
</g>
<g>
</g>
<g>
</g>
<g>
</g>
<g>
</g>
<g>
</g>
</svg>
